<?xml version="1.0" encoding="UTF-8"?>
<svg version="1.1" viewBox="0 0 1600 1072" width="1280" height="1280" xmlns="http://www.w3.org/2000/svg">
<path transform="translate(0)" d="m0 0h1600v1072h-1600v-1072z" fill="#E6CDF5"/>
<path transform="translate(1596 913)" d="m0 0c2.31 0.812 2.31 0.812 4.31 1.81v157h-768v-3c9.7-2.07 19.3-4.06 29.2-5.06 5.14-0.525 9.75-1.35 14.6-3.21 3.92-1.27 7.99-1.69 12.1-2.26 2.61-0.38 5.15-0.843 7.73-1.4 6.05-1.27 12.2-2.08 18.3-2.92 3.53-0.503 6.77-1.02 10.2-2.16 4.07-1.33 8.1-1.69 12.4-2.1 0.831-0.0864 1.66-0.173 2.52-0.262 2.03-0.21 4.07-0.413 6.11-0.613v-2c0.812-0.111 1.62-0.221 2.46-0.335 3.7-0.508 7.4-1.02 11.1-1.54 1.28-0.174 2.55-0.348 3.87-0.527 1.24-0.174 2.48-0.348 3.76-0.527 1.7-0.236 1.7-0.236 3.44-0.476 3.55-0.627 6.91-1.56 10.4-2.59 6.04-1.34 11.8-2.28 18-2v-2c1.17-0.174 1.17-0.174 2.37-0.351 3.52-0.524 7.04-1.06 10.6-1.59 1.23-0.182 2.46-0.365 3.73-0.553l3.54-0.537c1.08-0.162 2.17-0.325 3.28-0.492 2.43-0.225 2.43-0.225 3.5-1.48 1.64-0.298 3.3-0.539 4.95-0.754 1.52-0.198 1.52-0.198 3.07-0.4 1.6-0.202 1.6-0.202 3.23-0.408 1.05-0.139 2.1-0.277 3.18-0.42 4.56-0.586 8.96-1.1 13.6-1.02v-2c7.31-1.67 14.5-2.51 22-3v-2c5.24-0.749 10.5-1.5 15.7-2.25 0.903-0.13 1.81-0.26 2.73-0.394 1.58-0.224 3.17-0.441 4.75-0.646 3.17-0.193 3.17-0.193 5.79-1.71 1.92-0.346 3.86-0.636 5.79-0.902 1.19-0.168 2.38-0.336 3.6-0.51 2.51-0.348 5.02-0.694 7.53-1.04 1.19-0.17 2.39-0.339 3.62-0.514 1.64-0.226 1.64-0.226 3.31-0.457 3.19-0.587 6.09-1.51 9.14-2.58 7.92-1.7 15.9-2.46 24-3v-2c1.16-0.11 2.32-0.219 3.51-0.332 1.54-0.16 3.08-0.32 4.62-0.48 0.761-0.0703 1.52-0.141 2.3-0.213 3.63-0.391 6.24-0.807 9.53-2.48 4.15-2.03 8.04-2.22 12.6-2.55 1.67-0.13 3.34-0.266 5-0.41 0.732-0.0542 1.46-0.108 2.22-0.164 2.3-0.293 2.3-0.293 4.64-1.35 2.81-1.11 5.25-1.48 8.25-1.8 1.06-0.12 2.12-0.24 3.21-0.363 2.22-0.238 4.44-0.475 6.66-0.711 1.05-0.12 2.11-0.24 3.19-0.363 0.963-0.102 1.93-0.205 2.92-0.311 2.53-0.281 2.53-0.281 4.35-2.47 2.05-0.396 4.12-0.692 6.19-0.938 5.4-0.704 10.7-1.55 16.1-2.62 1.24-0.249 2.49-0.498 3.77-0.754 2.89-0.539 2.89-0.539 4.98-1.68 1.66-0.22 3.34-0.391 5.01-0.535 0.986-0.087 1.97-0.174 2.99-0.264 1.03-0.087 2.07-0.174 3.13-0.264 1.04-0.0909 2.08-0.182 3.15-0.275 2.57-0.224 5.15-0.445 7.72-0.662v-2c1.58-0.164 1.58-0.164 3.18-0.332 1.42-0.16 2.84-0.32 4.25-0.48 0.688-0.0703 1.38-0.141 2.08-0.213 3.79-0.441 7.18-1.15 10.8-2.45 5.4-1.91 10.8-2.47 16.5-3.09 2.03-0.224 4.06-0.454 6.08-0.691 0.885-0.0961 1.77-0.192 2.68-0.291 2.4-0.331 2.4-0.331 4.3-1.42 3-1.46 5.94-1.78 9.23-2.29 0.678-0.106 1.36-0.212 2.05-0.321 2.16-0.336 4.31-0.662 6.47-0.988 2.16-0.33 4.33-0.663 6.49-0.999 1.96-0.304 3.92-0.601 5.87-0.898 2.92-0.379 2.92-0.379 5.01-1.54 2.07-0.276 4.14-0.444 6.22-0.621 2.38-0.325 4.64-0.781 6.98-1.32 5.64-1.29 11.3-2.1 17-2.91 0.801-0.12 1.6-0.24 2.43-0.363 0.713-0.102 1.43-0.205 2.16-0.311 2.25-0.424 2.25-0.424 4.6-1.46 2.7-1.06 5.13-1.55 8-1.98 1.04-0.159 2.07-0.317 3.14-0.481 1.64-0.243 1.64-0.243 3.31-0.492 10.9-1.68 21.7-3.61 32.4-6.02 4.93-1.1 9.89-2.09 14.9-3.04 0.913-0.175 1.83-0.35 2.77-0.531 6.58-1.24 13.1-2.22 19.8-2.98 3.14-0.465 6.15-1.18 9.22-1.98 3.62-0.883 7.3-1.47 11-2.08 5.21-0.715 5.21-0.715 10.1-2.44 2.33-0.32 4.66-0.607 7-0.875 5.52-0.663 10.6-1.7 15.9-3.64 2.15-0.488 2.15-0.488 4.48 0.117 3.19 0.473 4.92-0.44 7.78-1.8 3.18-1.36 6.49-1.86 9.88-2.43 0.673-0.121 1.35-0.242 2.04-0.367 4.31-0.765 8.63-1.41 13-2.01 0.0864-0.603 0.173-1.21 0.262-1.83 0.724-4.12 1.24-6.6 4.05-9.8 2.69-1.38 2.69-1.38 5.38-1.19z" fill="#FBFCFE"/>
<path transform="translate(0,925)" d="m0 0c12.4 0 12.4 0 17 1.44 1.33 0.4 1.33 0.4 2.69 0.809 1.77 0.578 3.54 1.16 5.31 1.75 3.24 0.458 6.48 0.864 9.73 1.25 5.17 0.646 5.17 0.646 6.27 1.75 3.55 0.449 7.09 0.821 10.7 1.16 0.75 0.0793 1.5 0.159 2.27 0.24 0.685 0.067 1.37 0.134 2.08 0.203 2 0.395 2 0.395 3.96 1.38 2.31 1.15 4.22 1.47 6.78 1.79 0.903 0.12 1.81 0.24 2.74 0.363 0.937 0.117 1.87 0.235 2.84 0.355 6.1 0.773 11.8 1.79 17.7 3.5 3.86 0.752 7.74 1.38 11.6 2 1.6 0.263 1.6 0.263 3.23 0.531 6.51 1.06 13 2.08 19.6 2.98 2.97 0.566 5.72 1.54 8.59 2.49 1.91 0.376 3.83 0.709 5.75 1 3.72 0.58 7.39 1.23 11.1 2.06 5.55 1.17 11.1 1.31 16.8 1.5 3.42 0.441 3.42 0.441 5.62 1.87 3.54 1.98 7 2.52 10.9 3.1 0.778 0.124 1.56 0.248 2.36 0.376 2.47 0.394 4.95 0.773 7.43 1.15 2.47 0.383 4.95 0.77 7.42 1.16 1.53 0.243 3.07 0.48 4.6 0.711 4.19 0.657 8.04 1.67 12 3.06 3.07 0.344 6.11 0.499 9.2 0.656 2.8 0.344 2.8 0.344 4.69 1.32 2.33 1.13 4.22 1.46 6.78 1.77 0.894 0.115 1.79 0.231 2.71 0.35 1.85 0.225 3.71 0.449 5.56 0.672 4.35 0.564 8.36 1.23 12.5 2.74 5.39 1.93 10.8 2.42 16.5 3 6.87 0.703 13.2 1.69 19.8 3.82 3.38 1 6.66 1.37 10.2 1.74 6.7 0.723 6.7 0.723 9.06 1.92 2.2 1.08 3.95 1.44 6.37 1.76 1.23 0.17 1.23 0.17 2.49 0.344 1.3 0.172 1.3 0.172 2.64 0.347 6.95 0.973 13.7 2.19 20.5 3.88 4.29 0.973 8.6 1.58 13 2.16 3.07 0.527 3.07 0.527 6.44 1.53 3.99 1.1 7.78 1.55 11.9 1.94 5.92 0.623 11.4 1.62 17.1 3.34 6.65 1.85 13.5 2.68 20.4 3.16 4.14 0.325 7.28 1.24 11.1 2.87 3.76 1.19 7.63 1.22 11.5 1.38 2.64 0.309 2.64 0.309 5.64 2.31 2.79 0.351 2.79 0.351 5.94 0.438 7.79 0.486 14.9 2.27 22.4 4.6 4.88 1.27 9.72 1.71 14.7 2.18 3.7 0.381 5.81 0.688 8.96 2.79 2.67 0.611 2.67 0.611 5.7 1 1.13 0.165 2.25 0.33 3.42 0.5 1.18 0.165 2.36 0.33 3.57 0.5 13.1 1.87 13.1 1.87 17.5 3.03 5.24 1.35 10.5 2.06 15.9 2.82 4.51 0.675 8.56 1.68 12.9 3.14 2.94 0.596 5.91 1.05 8.88 1.5 4.45 0.682 8.83 1.38 13.2 2.53 4.71 1.23 9.46 1.69 14.3 2.18 5.25 0.583 5.25 0.583 7.57 1.78 2.35 1.15 4.28 1.47 6.86 1.79 0.934 0.119 1.87 0.237 2.83 0.36 0.992 0.119 1.98 0.237 3.01 0.359 1.02 0.128 2.04 0.256 3.08 0.388 4.9 0.609 9.8 1.17 14.7 1.68 0.82 0.0851 1.64 0.17 2.49 0.258 1.53 0.155 3.07 0.303 4.6 0.441 3.58 0.357 5.44 0.698 8.5 2.73 2.04 0.597 2.04 0.597 4.25 1 2.72 0.558 5.28 1.17 7.94 2 4.83 1.27 9.66 1.84 14.6 2.44 3.21 0.562 3.21 0.562 5.08 1.55 2.51 1.19 4.62 1.48 7.37 1.79 1 0.12 2 0.24 3.04 0.363 1.04 0.117 2.08 0.235 3.15 0.355 2.06 0.233 4.12 0.473 6.18 0.719 1.37 0.154 1.37 0.154 2.76 0.311 2.75 0.496 5.02 1.43 7.62 2.47 1.92 0.387 3.85 0.718 5.78 1 1.09 0.165 2.18 0.33 3.3 0.5 1.13 0.165 2.26 0.33 3.42 0.5 2.24 0.328 4.48 0.661 6.72 1 1.48 0.217 1.48 0.217 3 0.438 2.79 0.563 5.15 1.5 7.78 2.56 2.06 0.379 2.06 0.379 4.12 0.492 1.15 0.095 1.15 0.095 2.32 0.192 0.805 0.063 1.61 0.126 2.44 0.191 8.73 0.783 16.8 2.55 25.1 5.12-2 2-2 2-4.27 2.25-0.958-3.12e-4 -1.92-6.24e-4 -2.9-9.45e-4 -1.66 0.00674-1.66 0.00674-3.35 0.0136-1.23-0.00525-2.45-0.0105-3.72-0.0159-1.3 0.00231-2.6 0.00462-3.94 0.00699-3.63 0.00617-7.27-2.39e-4 -10.9-0.00856-3.94-0.00684-7.89-0.00213-11.8 0.00115-6.92 0.00416-13.8 8.43e-4 -20.8-0.00728-10.3-0.012-20.6-0.0127-30.9-0.0109-17.3 0.00263-34.6-0.00407-51.9-0.016-17.1-0.0118-34.3-0.0195-51.4-0.0217-1.06-1.37e-4 -2.13-2.75e-4 -3.23-4.17e-4 -5.41-6.77e-4 -10.8-0.00128-16.2-0.00185-38.3-0.0042-76.6-0.0177-115-0.0366-37.2-0.0184-74.5-0.0325-112-0.041-1.15-2.63e-4 -2.29-5.26e-4 -3.48-7.97e-4 -11.5-0.00264-23-0.00519-34.6-0.00768-23.5-0.00507-46.9-0.0107-70.4-0.0167-1.08-2.75e-4 -2.16-5.49e-4 -3.27-8.32e-4 -33.1-0.00845-66.2-0.0193-99.3-0.0326-1.41-5.63e-4 -1.41-5.63e-4 -2.85-0.00114-38.1-0.0152-76.1-0.033-114-0.0502v-147z" fill="#FBFCFE"/>
</svg>
